<svg xmlns="http://www.w3.org/2000/svg" width="1024" height="1024" viewBox="0 0 1024 1024"><path d="M231 158h205l4 2 4 6v140h136V166l3-2 2-5 3-1h205v147h2V159h1v146h158v2l37 3v556H637l-6-28h-2v-9l-2-1v-8h-2v-97h-88l-1-10h-2l-1-17V570h-42v127l-1 17h-2l-1 9h-88v97h-2v9h-2l-8 37H33V310l37-3v-2h158V159h1v146h2Zm211 9v139h1V167Zm139 0v139h1V167ZM442 307v1h140v-1Zm47 261v1h46v-1Zm0 2v127h1V570Zm45 0v126h1V570Zm-277 49v1h25v-1Zm485 0v1h25v-1Zm-485 2v57h1v-57Zm2 0v57h20v-57Zm21 0v57h1v-57Zm463 0v57h1v-57Zm2 0v57h20v-57Zm21 0v57h1v-57Zm-509 58v1h25v-1Zm485 0v1h25v-1Z"/><path fill="#148EBD" d="M258 185h153v253h50V337h102v101h50V185h153v406h-51v101H563V539H461v153H309V591h-51Z"/><path fill="#1493C9" d="M84 332h144v1l-10 2h-6v401h150v101H61V335Zm712 0h141l13 2 13 1v502H662V736h150V336l-11-2-5-1Z"/><path fill="#26E9F4" d="M258 185h152v253h-16V186l-49 1-1 23h41v41h-86v-65h-24v166h3v4h3v3h3v3h3v3h3v3h3v4h3v3h3v3h4v3h3v3h3v4h3v3h3v3h4v3h3v3h3v3h3v4h3v3h4v3h3v3h3v3h3v3h3v4h3v3h3v3h4v3h3v3h3v3h3v4h3v3h3v3h4v3h3v3h3v3h3v4l-41 1-2-1-43-1h-23l-1 1-1 110h51v102h121l-1-152h133v152h121V574h51V457h-3v-3h-4v-3h-3v-3h-3v-4h-3v-3h-3v-3h-3v-3h-3v-3h-4v-3h-3v-4h-3v-3h-3v-3h-4v-3h-3v-3h-3v-3h-3v-4h-3v-3h-3v-3h-3v-3h-4v-3h-3v-3h-3v-4h-3v-3h-3v-3h-4v-3h-3v-3h-3v-4h-3v-3h-3v-3h-3v-3h-4v-3h-3v-3h-3v-3h-3v-3h-3v-4h-3v-3h-3v-3h-4v98h-15V185h152v406h-51v101H563V539H461v153H309V591h-51Z"/><path fill="#1491C2" d="M613 185h1v253h15v-98h4v3h3v3h3v4h3v3h3v3h3v3h3v3h4v3h3v3h3v3h3v4h3v3h3v3h4v3h3v3h3v4h3v3h3v3h4v3h3v3h3v3h3v4h3v3h3v3h3v3h4v3h3v3h3v4h3v3h4v3h3v3h3v3h3v3h3v4h3v3h3v3h4v3h3v117h-51v102H579V549h18v-44h-44v-63l1-1 8-1 1-1h50Z"/><path fill="#1DC2D8" d="M275 447h1v16h23v-6h1v6h42l3 1h43v3h3v3h4v3h3v3h3v4h3v3h3v3h3v3h4v3h3v3h3v3h3v4h3v3h4v3h3v3h3v3h3v3h3v4h3v2h134v153h-1V524H445l1 6v146H325V574h-51V464Z"/><path fill="#178DAF" d="M813 336h150v501H663V737h49v1h-33v82h158v-83h41v40h-40v42h40l44 1v-43h25V633h-3l-1-31h-2l-1-28-1-7h-1l-1-21-2-4-2-34h-2v-41h-2l-1-6v-22h-3v-47h-2l-1-3v-15l-12-1-1-2-6-1v-3h-9v-3h-10v-3h-9v-3h-9v-3l-6-1-1-2-6-1v-2l-9-1v-3h-10v-3h-6v394h-15Zm-752 0h150v400h-15V342l-6 1v2h-7v4h-9v2l-7 1v2l-2 1h-7v3h-12v3h-6v3h-10v3h-9v3l-6 1-1 2h-9v3h-3v7l-1 3h-2v50h-3v35l-1 3h-2v22l-1 9h-2l-1 25h-2l-1 31h-3v41h-2l-1 31h-3v144h25v43l44-1h40v-42h-40v-39l1-1h40v83h158v-82h-33v-1h49v100H61Z"/><path fill="#17A0E9" d="M258 185h152v253h-16V186l-49 1-1 23h41v41h-86v-65h-24v166h3v4h3v3h3v3h3v3h3v3h3v4h3v3h3v3h4v3h3v3h3v4h3v3h3v3h4v3h3v3h3v3h3v4h3v3h4v3h3v3h3v3h3v3h3v4h3v3h3v3h4v3h3v3h3v3h3v4h3v3h3v3h4v3h3v3h3v3h3v4l-41 1-2-1-43-1h-23l-1 1-1 110h51v102h-3v3h-3v3h-4v3h-3v4h-3v-98h-51Z"/><path fill="#1599DD" d="M275 186h24v65h86v-41h-41v-23l1-1h49v135l-1 101h-8v-44h-86v-3h-3v-3h-3v-4h-3v-3h-3v-3h-3v-3h-3v-3h-3v-4h-3Z"/><path fill="#138CB4" d="M838 612h40v83h44v-83h18v9h3l1 25h3v131h-25v43h-44l-40-1v-42h40v-40h-41l-7-1-1-9v-75h8v-38Zm-737-1h1v84h44v-83h40l1 1v39h8v69l-1 15-7 1-40 1-1 39h40v42l-40 1h-44v-43H77V649h3l1-28h2l1-9Z"/><path fill="#158BAA" d="M84 332h144v1l-10 2h-6v401h150v101h-1V737l-16 1v82H187v-83h24V336H61v-1Zm712 0h141l13 2 13 1v1H813v401h24v83H679v-82l-16-1v100h-1V736h150V336l-11-2-5-1Z"/><path fill="#1289AD" d="M579 549h101v41h18v42h-17l-1 43h-82v-2h-4v-3h-3v-3h-3v-4h-3v-3h-3v-3h-3Z"/><path fill="#19AFC6" d="M274 543h3v3h3v3h64v41h83v-40l2-1h16v127H325V574h-51Z"/><path fill="#2FFDFE" d="M813 336h134v297h-3l-1-31h-2l-1-28-1-7h-1l-1-21-2-4-2-34h-2v-41h-2l-1-6v-22h-3v-47h-2l-1-3v-15l-12-1-1-2-6-1v-3h-9v-3h-10v-3h-9v-3h-9v-3l-6-1-1-2-6-1v-2l-9-1v-3h-10v-3h-6v394h-15Z"/><path fill="#2BFEFE" d="M77 336h134v400h-15V342l-6 1v2h-7v4h-9v2l-7 1v2l-2 1h-7v3h-12v3h-6v3h-10v3h-9v3l-6 1-1 2h-9v3h-3v7l-1 3h-2v50h-3v35l-1 3h-2v22l-1 9h-2l-1 25h-2l-1 31h-3v41h-2l-1 31h-3Z"/><path fill="#179AD7" d="M193 342h3v69l-1 22h-1v-22l-6 1-1 33-1 1-39 1-1 80h-44v-41h-8l1 5-1 18-1 5h-3v32h-4v-13l1-3h2v-22l1-3h2l1-31h2l1-38h3v-50h2l1-10h3v-3h9l1-3h6v-3h9v-3h10v-3h6v-3h12v-3l9-1v-2l7-1v-2h9v-4h7v-2Zm635 0h6v3h10v3l9 1v2h6l1 3 6 1v3h9v3h9v3h10v3h9v3h6l1 3h9l3 1 1 18h2v47h3l1 28h2v19h-9v41h-44v-81h-39l-2-2v-33l-6 1-1 21h-1l-1-22Z"/><path fill="#2BF7FC" d="M614 185h53v3h3v3h4v3h3v3h3v3h3v4h3v3h3v3h4v3h3v3h3v3h3v4h3v3h4v3h3v3h3v3h3v3h3v4h4v3h2v3h-2v22l-1 25h-93l-1 42h-4v-3h-3v-4h-3v-3h-3v-3h-3Z"/><path fill="#20D5E7" d="M259 337h3v3h3v3h3v3h3v3h3v4h3v3h4v3h3v3h3v3h3v3h3v4h3v3h3v3h4v3h3v3h3v4h3v3h3v3h4v3h3v3h3v3h3v4h3v3h4v3h3v3h3v3h3v3h3v4h3v3h3v3h4v3h3v3h3v3h3v4h3v3h3v3h4v3h3v3h3v3h3v4l-41 1-2-1-43-1h-23l-1 1-1 110h51v16h-3v-3h-4v-2h-2v2h-4v3h-53Z"/><path fill="#6AD8F5" d="M445 524h133v152h124v3h3v3h4v4h2v3h4v3H563V539H461v153H309v-3h3v-4h3v-3h4v-3h3v-3h124Z"/><path fill="#1598D5" d="M345 186h49v135l-1 101h-8v-44h-86v-3h-3v-3h-3v-4h-3v-3h-3v-3h-3v-3h-3v-3h-3v-4h-3v-15h69v-41l40-1 1-22v-21l1-42h-42v-23Z"/><path fill="#1389AB" d="m78 695 68 1v81h40v42l-40 1h-44v-84H78Z"/><path fill="#1289AC" d="M945 695h1v41h-24v84h-44l-40-1v-42h40v-81Z"/><path fill="#138CB6" d="M681 464h43v41h25v69h-50v102H579v-19h3v3h3v3h3v4h3v3h3v3h4v2h82v-43l1-1h15l2 1v-42h-18V465Z"/><path fill="#148DB9" d="M613 185h1v253h17v-14l1-1h6l1 1v125h-42v-44h-44v-63l1-1 8-1 1-1h50Z"/><path fill="#158BAA" d="M712 737h100v1h-15v52l-1 29h-83l-1-17Z"/><path fill="#169EE4" d="M667 185h99v406h-51v98h-4v-3h-2v-4h-4v-3h-3v-3h-3v-98h3v3h3v3h4v3h3v3h53V283h-2v-3h-4v-3h-3v-4h-3v-3h-3v-3h-4v-3h-3v-3h-3v-4h-3v-3h-3v-3h-3v-3h-3v-3h-3v-3h-4v-4h-3v-3h-3v-3h-3v-3h-3v-3h-4v-3h-3v-4h-3v-3h-3v-3h-3v-3h-4v-3h-3v-3h-3v-4h-3v-3h-3v-3h-3v-3h-4v-3h-3Z"/><path fill="#A0FEFE" d="M947 336h15v476h-2l-1-28-1-10h-1l-1-28h-2l-1-16v-19h-2l-1-3v-22h-2l-1-9Zm-885 0h15v341l-1 9h-2v16h-3l-1 38h-2l-1 37h-2v25l-1 16-1 6h-1Z"/><path fill="#50C6F0" d="M146 336h65v400h-15V337h-50Z"/><path fill="#21C7DE" d="M275 447h1v16h23v-6h1v6h42l2 1v85h-64v-3h-3v-3h-3v-79Z"/><path fill="#4FC5EF" d="M813 336h15v400h-15Z"/><path fill="#8AF0FB" d="M750 270h3v3h3v4h3v3h4v3h2v307h-53v-3h-3v-3h-4v-3h-3v-3h-3v-4h51Z"/><path fill="#1692BF" d="M936 552h1v34h3v26h-18v83h-44v-83h-40l-1 40h-8l1 84h7v1h-24v-1h15V571h9v40h41v-40h1v40h43v-41h14ZM724 436h3v2h4v3h3v3h3v4h3v3h3v3h4v3h3v117h-1v-69h-25v-41l-43 1-1 84h-41v-85h-41v-1h40l1-3v3h85Z"/><path fill="#2AEBF7" d="M630 264h1v31h93v-25h1v26l-44 1-1 81h-9l-3-1v-2h-4v-4h-3v-3h-3v-3h-3v-3h-4v-3h-3v-3h-3v-3h-3v-3h-3v-4h-3v-3h-3v-3h-4v98h-15V324h3v3h3v3h3v4h3v3h4Z"/><path fill="#189BD5" d="M462 337h100v101h-16v-60h-33l-1-3v-37h-34v100h-16Z"/><path fill="#1692BF" d="M145 571h1v40h41v-40h9v165h15v1h-24v-1h7l1-84h-8l-1-39-40-1v83h-44v-84h43Z"/><path fill="#1682A3" d="M84 332h144v1l-10 2h-6v401h150v101h-1V737l-90 1v39l-84 1v-41h24V336H61v-1Z"/><path fill="#81E9F9" d="M259 337h3v3h3v3h3v3h3v3h3v225h51v16h-3v-3h-4v-2h-2v2h-4v3h-53Z"/><path fill="#50C6F0" d="M575 527h3v149h124v3h3v3h4v4h2v3h4v3H563V540h3v-4h3v-3h3v-3h3ZM258 185h16v164h-3v-3h-3v-3h-3v-3h-3v-3h-3v253h53v-3h4v-2h2v2h4v3h3v86h-3v3h-3v3h-4v3h-3v4h-3v-98h-51Z"/><path fill="#D2FEFD" d="M675 821h275v6l6 1v3h3l3 3v2H663v-3h3v-2h2v-4h4v-3h3Zm-601 0h275v3h3v3h4v4h2v2h3v3H62v-2h3v-3h3v-3l6-1Z"/><path fill="#2DF6FC" d="M631 185h36v3h3v3h4v3h3v3h3v3h3v4h3v3h3v3h4v3h3v3h3v3h3v4h3v3h4v3h3v3h3v3h3v3h3v4h4v3h2v3h-2v22l-1 25h-44v-85h-41v-23l-8 2Z"/><path fill="#17A1E8" d="M828 342h6v3h10v3l9 1v2h6l1 3 6 1v3h9v3h9v3h10v3h9v3h6l1 3h9l3 1 1 18h2v16h-3v-6l-84 1-1 8-6 1-1 21h-1l-1-22Z"/><path fill="#168BAA" d="M638 631h42v44h-82v-2h-4v-3h-3v-3h-3v-4h-3v-3h-3v-3h-3v-25h20Z"/><path fill="#17A1E8" d="M193 342h3v69l-1 22h-1v-22h-7v-9l-41 1-47-1v-16h2l1-10h3v-3h9l1-3h6v-3h9v-3h10v-3h6v-3h12v-3l9-1v-2l7-1v-2h9v-4h7v-2Z"/><path fill="#1598D9" d="M837 402h85v6h3v37l-3 1h-83l-2-2Zm-738 0h88l1 10-1 33-1 1-40 1-1-1-46-1Z"/><path fill="#1AB6CD" d="M274 543h3v3h3v3h64v41h43l-1 4-1 38h-16v2h-2v-3h-3v-3h-4v-3h-3v-3h-4v-3h-3v-3h-3v-4h-3v-3h-3v-3h-4v-3h-3v-3h-3v-3h-3v-3h-3v-20h-51Z"/><path fill="#50C6F0" d="M395 185h15v253h-15Z"/><path fill="#1491C6" d="M393 321h1v102h-8v40l2 1h-3v-4h-3v-3h-3v-3h-3v-3h-4v-3h-3v-3h-3v-4h-3v-3h-3v-3h-3v-3h-4v-3h-3v-3h-3v-4h-3v-3h-3v-3h-3v-3h-3v-3h-4v-3h-3v-4h-3v-3h-3v-3h-3v-3h-4v-3h-3v-3h-3v-4h-3v-3h-3v-3h82v44h8Z"/><path fill="#1284A5" d="M838 777h84v43h-44l-40-1Zm-736 0h84v42l-40 1h-44Z"/><path fill="#1A93C1" d="M410 185h1v253h50V337h1v101h15v1h-6v25h-44l-1 38h-3v-4h-3v-3h-3v-3h-3v-3h-4v-3h-3v-3h-3v-3h-3v-4h-3v-3h-3v-3h-4v-3h-3v-4h-2v-40h8v15h16Z"/><path fill="#168EB0" d="M325 594h3v3h3v3h3v3h3v3h4v3h3v3h3v4h3v3h3v3h4v3h3v4h3v3h3v3h3v3h3v3h4v3h3v3h3v4h3v2h3v4h4v3h3v3h3v3h3v4h3v3h3v2h-82Z"/><path fill="#1FB9D1" d="M344 549h84l-1 41h-83Z"/><path fill="#158EB0" d="M712 737h100v1h-59v81h-40l-1-17Zm-500 0h100v65l-1 17h-40v-81h-59Z"/><path fill="#4DB6DA" d="M750 185h16v406h-51v98h-4v-3h-2v-4h-4v-3h-3v-3h-3v-98h3v3h3v3h4v3h3v3h53V283h-2v-3h-4v-3h-3v-4h-3v-3h-3Z"/><path fill="#2BFEFE" d="M922 339h24v106h-17l1 10 2 3v28h13v84h-4l-1 4-1-7h-1l-1-21-2-4-2-34h-2v-41h-2l-1-6v-22h-3v-47h-2l-1-3v-15l-3-1h3Z"/><path fill="#30FEFE" d="M77 336h69l50 1v5l-6 1v2h-7v4h-9v2l-7 1v2l-2 1h-7v3h-15v2l-7 1h-34v-22H78v106h17v10h-2l-1 31-12 1v66l-1 17h4v32h-2l-1 31h-3Z"/><path fill="#148DB6" d="M922 612h18v9h3l1 25h3v131h-25v-41h24l-1-40h-67v-1h44Zm-821-1h1v84h44v1H79l-1 40h24v41H77V649h3l1-28h2l1-9Z"/><path fill="#179AD7" d="M275 260h1v35h108v1h-40v41l-44 1-25-1Z"/><path fill="#1595D1" d="M478 338h34l1 39v3l-1 43h-34Z"/><path fill="#197E9F" d="M796 332h141l13 2 13 1v1H813v401h24v40l-40 1v-40l-134-1v100h-1V736h150V336l-11-2-5-1Z"/><path fill="#158EBD" d="M680 549h45v24h-26v103H579v-19h3v3h3v3h3v4h3v3h3v3h4v2h82v-43l1-1h15l2 1v-42h-18Z"/><path fill="#52C6F0" d="M750 460h3v4h3v3h3v3h3v3h3v117h-53v-3h-3v-3h-4v-3h-3v-3h-3v-4h51Z"/><path fill="#158FB5" d="M579 590h60v41l-1 1-40 1-19-1Z"/><path fill="#169AD5" d="M275 337h69v25l-1 16h-44v-3h-3v-3h-3v-4h-3v-3h-3v-3h-3v-3h-3v-3h-3v-4h-3Z"/><path fill="#1692BF" d="M512 463h41v59h-41Z"/><path fill="#D2FEFE" d="M322 676h127v3h3v3h3v3h3v4h3v3H309v-3h3v-4h3v-3h4v-3h3Zm253 0h127v3h3v3h4v4h2v3h4v3H563v-3h3v-4h3v-3h3v-3h3Z"/><path fill="#99FAFD" d="M614 185h15v152h-3v-3h-3v-4h-3v-3h-3v-3h-3Z"/><path fill="#26DFF0" d="M748 340h1v117h-2v-3h-4v-3h-3v-3h-3v-4h-3v-3h-3v-3h-3v-3h-3v-3h-4v-3h-3v-4h-3v-3h-3v-3h-4v-3h-3v-3h-3v-3h-3v-4h-3v-3h28l1-25h23Z"/><path fill="#68BDD1" d="M61 336h1l1 482 2-41h2v-31l1-6h2v-28l1-10h3v-16h2v-9h1v144h-3v6l-6 1v3h-3v3h-3v2h299v1H61Z"/><path fill="#1EC5DA" d="M274 464h25l1 50v35h-20v-3h-3v-3h-3Z"/><path fill="#68BDD2" d="M962 336h1v501H663v-1h299v-2l-3-1v-2h-3v-3l-6-1v-6h-3V677h1v9h2l1 25h2l2 32 2 3 1 25h1l1 13v28h2Z"/><path fill="#4CB3D6" d="M258 185h1v405h53v-3h4v-2h2v2h4v3h3v86h-3v3h-3v3h-4v3h-3v4h-3v-98h-51Z"/><path fill="#179DDE" d="M385 210h1v64l-1 21h-41v-44h41Z"/><path fill="#1284A5" d="M639 631h41v44h-82v-1h41Z"/><path fill="#D2FEFE" d="M446 524h132v3h-3v3h-3v3h-3v3h-3v4H458v-4h-3v-3h-3v-3h-3v-3h-3Z"/><path fill="#169AD5" d="M879 486h43v41h-44v-40Zm-776 0h43v41h-44v-40Z"/><path fill="#179CDD" d="M837 402h42l-1 43h-40l-1-1Zm-690 0h40l1 10-2 33h-40v-42Z"/><path fill="#1797C9" d="M709 419h3v3h3v3h3v4h3v3h4v3h3l-1 3v-2h-3v27h-44v-40h31v-3Z"/><path fill="#1286A4" d="M798 777h39v43h-40v-42Zm-610 0h39v43h-40v-42Z"/><path fill="#1388A9" d="M753 738h44v39h-44Z"/><path fill="#1283A5" d="M325 594h3v3h3v3h3v3h3l1 3 2 1v3h3l1 3v61h41v-20h3v3h4v3h3v3h3v3h3v4h3v3h3v2h-82Z"/><path fill="#1DB9D6" d="M344 549h42l-1 41h-41Z"/><path fill="#168EB0" d="M838 777h40v42h-40Zm-692 0h40v42h-40Z"/><path fill="#148CB8" d="M712 737h100v1h-59v39h-40Zm-500 0h100l-1 40h-40v-39h-59Z"/><path fill="#148CBA" d="M146 612h40l1 1v39h-41Zm692 0h40v40h-41v-38Z"/><path fill="#51C7F0" d="M259 527h3v3h3v3h3v3h3v4h3v34h51v16h-3v-3h-4v-2h-2v2h-4v3h-53Z"/><path fill="#158EBD" d="M837 696h41v40h-40l-1-22Zm-691 0h41v18l-1 22h-40Z"/><path fill="#50C6F0" d="M614 324h3v3h3v3h3v4h3v3h3v101h-15Z"/><path fill="#1CA3E7" d="M274 185h121v253h-1V186l-49 1-1 23h-43l-1 2v-26h-25v166h3l-1 4v-3h-3Z"/><path fill="#1796C9" d="M838 571h40v40h-40Zm-692 0h40v40h-40Z"/><path fill="#179EE9" d="M146 358h6v3l-5 2-1 38-47 1v-16h2l1-10h3v-3h9l1-3h6v-3h9v-3h10v-3h6Z"/><path fill="#50C6F0" d="M547 337h15v101h-15Zm-85 0h15v101h-15Z"/><path fill="#179FE9" d="M879 364h15v3h9v3h6l1 3h9l3 1 1 18h2v16h-3v-7h-44v-36Z"/><path fill="#1EB1C9" d="m385 590 2 1-1 3-1 38h-16v2h-2v-3h-3v-3h-4v-3h-3v-3h-4v-3h-3v-3h-3v-4h-3v-3l-3-1h3v-16l1-1Z"/><path fill="#1E8FB9" d="M613 185h1v253h17v-14l1-1h6l1 1v36l-1 3h-41v-23h-34v-1h50Z"/><path fill="#25DEEE" d="M274 353h3v3h4v3h3v3h3v3h3v3h3v4h3v3h3v3h4v3h3v3h3v4h3v3h3v3h4v3h3v4h2v2l-48 1-1 60h-1Z"/><path fill="#1886B2" d="M410 185h1v253h50v1l-35 1v23h-36l-1 3-3-3v-40h8v15h16Z"/><path fill="#50C6F0" d="M750 185h15v98h-2v-3h-4v-3h-3v-4h-3v-3h-3Zm-87 552h15v84h-3v3h-3v3h-4v4h-2v2h-3Zm-317 0h15v96h-3v-2h-2v-4h-4v-3h-3v-3h-3Z"/><path fill="#1898D0" d="M479 338h33l1 40h-34Z"/><path fill="#1AA5BB" d="m385 638 2 1-1 2h40l1 7v26h17v-17h1v19H325v-1h82v-2h-3v-3h-3v-4h-3v-3h-3v-3h-3v-3h-4v-4h-3v-2l-3-1h3Z"/><path fill="#1288A9" d="M679 738h33v39h-33Zm-367 0h33v39h-33Z"/><path fill="#1690BA" d="M553 505h44v44h-18v-27h-26Z"/><path fill="#168EB1" d="M698 574h1v102H579v-19h3v3h3v3h3v4h3v3h3v3h4v2h82v-43l1-1h15l2 1Z"/><path fill="#1287AF" d="m78 695 68 1v39h-1v-36l-42 1-1 36H78Z"/><path fill="#2FBFDA" d="M426 505h4v3h3v3h3v3h3v3h3v4h3v2h134v153h-1V524H445l1 6v146h-1V549l-16 1-2-1-1-25Z"/><path fill="#159CE2" d="M828 342h6v3h10v3l9 1v2h6l1 3 6 1v4h5l-2 2h-31v40h84v1l-84 1-1 8-6 1-1 21h-1l-1-22Z"/><path fill="#1FD3E7" d="M696 403h28l1 19h24v35h-2v-3h-4v-3h-3v-3h-3v-4h-3v-3h-3v-3h-3v-3h-3v-3h-4v-3h-3v-4h-3v-3h-3v-3h-4v-3h-3v-3h-3v-3h-3v-4h-3Z"/><path fill="#169DE2" d="M193 342h3v69l-1 22h-1v-22h-7v-9l-41 1-44-1v-1h84v-27l1-13h-32l-2-2 9-1v-3l5-1v-2l7-1v-2h9v-4h7v-2Z"/><path fill="#158BAA" d="M922 777h24v43h-24Zm-844 0h24v43H78Z"/><path fill="#2AFEFE" d="M925 417h4l1 38 2 3v28h13v84h-4l-1 4-1-7h-1l-1-21-2-4-2-34h-2v-41h-2l-1-6v-22h-3Z"/><path fill="#30FDFE" d="M631 185h36v3h3v3h4v3h3v3h3v3h3v4h3v3h3v3l-9 1-41-1v-23l-8 2Z"/><path fill="#1690B5" d="M922 737h25v40h-25Zm-845 0h25v40H77Z"/><path fill="#179CDB" d="M275 296h26l-2 40h-23l-1-9Z"/><path fill="#24D4E8" d="M277 423h22v40h-23l-1-16v-22Z"/><path fill="#29FEFE" d="M98 414h1v22h-3v35l-1 3h-2v22l-1 9h-2l-1 25h-2l-1 31h-3v9h-4v-83l1-1h12v-28l1-3h2v-31l1-7h2Z"/><path fill="#22C9DF" d="M385 464h3v3h3v3h4v3h3v3h3v4h3v3h3v3h3v3h4v3h3v3h3v3h3v4h3v3h-40l-1-7Z"/><path fill="#172629" d="M461 539h102v153h-3V542h-96v150h-3Z"/><path fill="#24D4E8" d="M344 423h3v3h3v3h3v3h4v3h3v3h3v3h3v4h3v3h3v3h4v3h3v3h3v3h3v3h-41Z"/><path fill="#1793C1" d="M411 439h16v24h44v1h-44l-1 38h-3v-4h-3v-3h-3v-3h-3v-3h-4v-3h-3v-3h-3v-3h-3v-4h-3v-3h-3v-3h-4v-3h-3l1-3 1-1h36v-23h-15Z"/><path fill="#179BD4" d="M629 340h4v3h3v3h3v4h3v3h3v3h3v3h3v3h4v3h3v3h3v3h3v4h3v3l-36 1-1 59h-1Z"/><path fill="#D1FEFE" d="M700 575h53v3h3v3h3v3h3v3h3v3h-53v-3h-3v-3h-4v-3h-3v-4h-2Z"/><path fill="#D2FEFD" d="M271 575h53v2h-2v4h-3v3h-4v3h-3v3h-53v-3h3v-3h3v-3h3v-3h3Z"/><path fill="#1BAAC1" d="M444 609h1v48l-1 17h-17l-1-26v-17h18Z"/><path fill="#1798CB" d="m347 422 38 1v37h-3v-3h-3v-3h-3v-3h-4v-3h-3v-3h-3v-4h-3v-3h-3v-3h-3v-3h-4v-3h-3v-3h-3Z"/><path fill="#168CAF" d="M680 590h18v42h-18Z"/><path fill="#1693C4" d="M87 552h1v18h14v41l-1 1H84v-26h2Zm849 0h1v34l3 1-1 24h-17v-41h14Z"/><path fill="#1491C6" d="M630 362h1l1 16h38v3h4v3l-3 1-31 1-1 38h-7l-1 14h-1Z"/><path fill="#D6FDFD" d="M352 827h4v4h2v2h3v3H62v-2h3v-3h3v-3h6l-3 4h-2v2h286v-3h-3Z"/><path fill="#1596CC" d="M275 337h24l1 37h-3v-2h-4v-4h-3v-3h-3v-3h-3v-3h-3v-3h-3v-4h-3Z"/><path fill="#D5FDFD" d="M668 827h4v4h-3v3h287v-3h3l3 3v2H663v-3h3v-2h2Z"/><path fill="#1384A5" d="M579 632h19v40h-3v-2h-4v-3h-3v-4h-3v-3h-3v-3h-3Z"/><path fill="#1388A9" d="M325 594h3v3h3v3h3v3h3l1 3 2 1v3h3l1 3v52h-1v-34h-17v44h-1Z"/><path fill="#2BFEFE" d="m194 338 1 4-5 1v2h-7v4h-9v2l-7 1v2l-2 1h-7v3h-12v-19Z"/><path fill="#113F59" d="M84 332h144v1l-16 3H61v-1Zm712 0h141l13 2 13 1v1H809l-13-3Z"/><path fill="#2BFEFE" d="m829 338 49 1v22h-3v-3h-9v-3l-6-1-1-2-6-1v-2l-9-1v-3h-10v-3h-5Z"/><path fill="#1694C0" d="M431 505h39v17l-25 1v-2h-3v-4h-3v-3h-3v-3h-3v-3l-3-1Z"/><path d="M992 311h1v555h-1Zm-961 0h1v555h-1Z"/><path fill="#178FB6" d="M725 549h23v24h-23Z"/><path fill="#1389B1" d="M274 543h3v3h3v3h4v3h3v3h3v4h3v3h4v3h3v3h3v3h3v3h-32Z"/><path fill="#18A2EA" d="M693 210h31v31l-3 1v-4h-3v-3h-3v-3h-3v-3h-3v-3h-4v-3h-3v-4h-3v-3h-3v-3h-3Z"/><path fill="#64D4F4" d="M563 641h3v3h3v3h3v4h3v3h3v22h-3v3h-3v3h-3v3h-3v4h-3Z"/><path fill="#C2E6E5" d="M315 682h4l-1 4h-2v3h138v-3h-2v-4h3v3h3v4h3v3H309v-3h3v-4h3Z"/><path fill="#9DFBFC" d="M960 338h1l1 474h-2l-1-28-1-10h-1l1-9h2Z"/><path fill="#C2E5E5" d="M569 682h3v4h-2v3h138v-3h-3v-4h4v4h2v3h4v3H563v-3h3v-4h3Z"/><path fill="#189AD1" d="M828 411h1v116h8v43l-9 1Zm-633 0h1v160l-9-1v-43h8Z"/><path fill="#113D59" d="M464 332h96l3 5H461Z"/><path fill="#20D8EA" d="M696 403h28l1 19h23v1l-22 1-1 7h-3v-2h-4v-4h-3v-3h-3v-3h-4v-3h-3v-3h-3v-3h-3v-4h-3Z"/><path fill="#179CDA" d="M96 436h3v9l4 1-1 40h-8l1 5-1 18-1 5h-3v32h-4v-13l1-3h2v-22l1-3h2l1-31h2Z"/><path fill="#2CFFFF" d="M945 486h2v147h-3l-1-31h-2v-32h4Z"/><path fill="#55D1FD" d="M813 336h15v6h-3v-3h-11v397h-1Z"/><path fill="#DCFEFE" d="M410 677h35v2h7v7h2v3h-34v-3h-3v-4h-3v-3h-4Z"/><path fill="#DBFEFE" d="M579 677h22v2h3v3h3v4h3v3h-40v-3h2v-7h7Z"/><path fill="#8EFEFE" d="M62 336h15v341l-1 9h-2v-18h2V337H62Z"/><path fill="#1A9ACE" d="M629 340h4v3h3v4h2l1 15v16l-8 1-1 59h-1Z"/><path fill="#8EFEFE" d="M947 336h15v1h-14v337h2v12h-2l-1-9Z"/><path fill="#168EB5" d="M829 696h8l1 18v22h40v1h-41l-7-1-1-9Zm-642 0h8v25l-1 15-7 1-41 1v-2h40v-22Z"/><path d="M637 867h354v1H637Zm-604 0h354v1H33Z"/><path fill="#1698CF" d="M385 378h8v44h-8Z"/><path fill="#179CDA" d="M925 439h3l1 28h2v19h-9v-41h3Z"/><path fill="#138EBF" d="M829 571h8v40h-8Zm-642 0h8v40h-8Z"/><path fill="#2BFFFF" d="m78 486 2 1v66l-1 17h4v32h-2l-1 31h-3Z"/><path fill="#2DFEFE" d="M143 358h3v3h-6v3h-10v3h-9v3l-6 1-1 2h-12v-12l41-1Z"/><path fill="#1286A4" d="M385 654h3v3h4v3h3v3h3v3h3v4h3v3h3v2h-63v-1h41Z"/><path fill="#23A0B8" d="M579 657h3v3h3v3h3v4h3v3h3v3h4v2h101v1H579Z"/><path fill="#2DFEFE" d="M884 361h38v12h-12l-1-2-6-1v-3h-9v-3h-10Z"/><path fill="#18A3C8" d="M934 527h1l1 13h1l1 6 1 19h1l1 9v28h2l1 3v28h3v13h-3l-1-3v-22h-3v-35h-3v-34h-3Z"/><path fill="#B8EFF2" d="M675 821h275v3h-3v-2H678v2h-3Zm-601 0h275v3h-3v-2H77v2h-3Z"/><path fill="#4CC2EC" d="M947 677h1v9h2v135h-3Z"/><path fill="#4DC2EC" d="M76 677h1v144h-2l-1-135h2Z"/><path fill="#1792BF" d="M830 612h7v40h-7Z"/><path fill="#26D9F1" d="M925 417h4l1 38 2 3v28h2l1 6v35h-1l-1-19h-2v-41h-2l-1-6v-22h-3Z"/><path fill="#25DBED" d="M748 394h1v28h-24l-1-6v-21h1v18h23Z"/><path fill="#17A1C7" d="M83 561h3v19h-2v41l-2 3-1 19-1 6h-3v-16h3v-28l1-3h2Z"/><path fill="#D6FDFD" d="M458 537h108v3H458Z"/><path fill="#30FEFE" d="M945 571h2v62h-3l-1-31h-2v-13h3Z"/><path fill="#21CEE8" d="M98 414h1v22h-3v35l-1 3h-2v22l-1 9h-2v-13h1l1-34 1-3h2v-31l1-7h2Z"/><path d="M588 156h205v1H588Zm-357 0h205v1H231Z"/><path fill="#1BADC7" d="M360 628h4v3h3v3h2v-2h16v18h-3v-3h-3v-3h-3v-3h-4v-3h-3v-3h-3v-3h-3v-3Z"/><path fill="#50C7F2" d="m310 591 3 1-1 92h2l1-2v3h-3v4h-2Z"/><path fill="#7DE6F8" d="M71 702h3v13h-3v41l-1 2h-2v29l-1 6-2-3v-13h2v-31l1-6h2v-28Z"/><path fill="#6EDAF7" d="m445 524 1 3h3v3h3v3h3v3l3 1-6-1-1-3-3 1-1 126h-1Z"/><path fill="#80E8F9" d="M953 730h1l1 13 2 3 1 25h1l1 13v28h2v22l-2-1 1-9h-2v-37h-2l-1-10-1-22-2-3Z"/><path fill="#53C9F3" d="M575 527h3v127h-3v-3h-3l1-4v3h3V532l-4 1v-3h3Z"/><path fill="#1EA0E2" d="M828 342h6v3h10v3l9 1v2h6l1 3 2 1-5-1v-2h-10v-3h-9v-2h-8l-1 64h-1Z"/><path fill="#8DFAFC" d="M76 571h1v106l-1 9h-2v-18h2Z"/><path fill="#CBFAFB" d="M575 676h127v3h-3v-2H579v2h-4Z"/><path fill="#CBFAFA" d="M322 676h127v3h-4v-2H325v2h-3Z"/><path fill="#D4FDFD" d="M700 575h53v3l-47-1v3h3v4h-4v-3h-3v-4h-2Z"/><path fill="#2DFEFE" d="M80 589h3v13h-2l-1 31h-3l1-40Z"/><path fill="#D4FDFD" d="M759 584h3v3h3v3h-53v-3l47 1Z"/><path fill="#1591C0" d="M411 439h16v24h44v1h-44l-1 3v-3h-36v-1h36v-23h-15Z"/><path fill="#28FEFE" d="M938 552h7v18h-4l-1 4-1-7h-1Z"/><path fill="#78D6EC" d="M271 574h54v16h-3v-3h-4v-2h-2l-1 2v-3h4v-3h3v-4h2v-2h-53Z"/><path fill="#21CEE2" d="M275 447h1v16h23v-6h1v6h42v1l-41 1-1 24h-1v-25l-23 1-1-1Z"/><path fill="#1593C6" d="M837 561h1l1 8 39 1v1h-40v40h-1v-40h-8v-1h8Zm-651 0h1v9h8v1h-8v40h-1v-40h-40v-1l39-1Z"/><path fill="#19A8D2" d="M934 527h1l1 13h1l1 6v34h2v6h-3v-34h-3Z"/><path fill="#23DEEF" d="M931 486h3l1 6v35h-1l-1-19h-2Z"/><path fill="#2BEFF0" d="M146 336h62v3h-9v3h-3v-5h-50Z"/><path fill="#22D8EA" d="M724 416h1v6h23v1l-22 1-1 7h-3v-2h-4v-4h-3v-3h9Z"/><path fill="#24E0F3" d="M98 414h1v22h-3v19h-1v-31l1-7h2Z"/><path fill="#1493CD" d="M275 337h24v3h-23v12h-1Z"/><path fill="#8EF2FB" d="M950 686h1v10h2l1 3v31h-1v-19h-2l-1-3Z"/><path fill="#20CCE5" d="M89 508h1v38h-4v-13l1-3h2Z"/><path fill="#75DFF6" d="m445 524 1 3h3v3h3v3h3v3l3 1-6-1-1-3-3 1v22l-1 9h-1Z"/><path fill="#D7FAFB" d="M569 682h3v4h-2v3h44v1l-51 1v-2h3v-4h3Z"/><path fill="#6AD8F4" d="M64 802h1v28h2v-3h3v-3h4v3l-6 1v3h-3v3h-3v-10l1-6Z"/><path fill="#E1FEFE" d="M274 575h48l-4 2v4h-6v-3h-3v-2h-35Z"/><path fill="#1FC3F2" d="M888 364h6v3h9v3h6l1 3h9l3 1v3l-6-1v-2h-7l-2-1v-2h-7v-3h-12Z"/><path fill="#B8EEF2" d="M878 821h72v3h-3v-2h-69Zm-804 0h72v1H77v2h-3Z"/><path fill="#2EFFFF" d="M941 571h4v21l-1-3h-3Z"/><path fill="#18A2EA" d="M668 186h12v11h-3v-3h-3v-3h-3v-4Z"/><path fill="#8BF3F7" d="M947 627h1v47h2v12h-2l-1-9Z"/><path fill="#9AF7FD" d="M628 273h1v64h-3v-3l-3-1h4Z"/><path fill="#CBFAFA" d="M639 676h63v3h-3v-2h-60Z"/><path fill="#D6FAFB" d="M452 682h3v3h3v4h3v2l-38-1v-1h31v-3h-2Z"/><path fill="#2DFFFF" d="M945 571h1v21h-1Zm-4 18h3l1 4-1 12-1-3h-2Z"/><path fill="#1FBFDD" d="M83 561h3v19h-2v6h-1Z"/><path fill="#20CDF1" d="M837 345h7v3l9 1v2h6l1 3 2 1-5-1v-2h-10v-3h-9Z"/><path fill="#1492CC" d="m93 486 2 3-1 20-1 5h-3v-9h2v-9Z"/><path fill="#6FDDF8" d="M959 802h1v10h2v22l-2-1 1-9h-2Z"/><path fill="#7DE5F8" d="M71 702h3v13h-3v15h-1v-18Z"/><path fill="#1991B8" d="M944 646h3v38h-1v-29h-2Z"/><path fill="#26E7F4" d="m629 337 1 2 1-2h8v9h-3v-3h-3v-3h-4Z"/><path fill="#1991B8" d="M77 649h3v9h-2v26h-1Z"/><path fill="#1FC7E3" d="M936 524h2v22l-3-4v-15Z"/><path fill="#27FEFE" d="M945 611h1l1 22h-3v-21Zm-867 0 2 1v21h-3Z"/><path fill="#20D1ED" d="M925 417h1v7h2v15h-3Z"/><path fill="#1EBEEA" d="M101 383h1v19h-3v-16h2Z"/><path fill="#1DBCE9" d="m922 389 1 3h2v16h-3Z"/><path fill="#16A2E6" d="M190 343h3v3h-6v3l-9 3h-7l3-1v-2h9v-4h7Z"/><path fill="#2CFCFE" d="M681 202h2v2h3v3h3v3l-9 1v-8Z"/><path fill="#19A6D0" d="M86 546h1v37l-1 3h-2v-6h2Z"/><path fill="#76E0F5" d="M76 665h1v12l-1 9h-2v-18h2Z"/><path fill="#1CB7D2" d="M77 633h3v16h-3Z"/><path fill="#D5FBFB" d="M411 676h38v3h-4v-2h-34Z"/><path fill="#1EA4E6" d="M828 342h6v3l3 1-7 1-1 17h-1Z"/><path fill="#6EDBF5" d="M67 771h1v16l-1 6-2-3v-13h2Z"/><path fill="#25D8EB" d="M716 423h8v8h-2v-2h-4v-4l-3-1Z"/><path fill="#9CFBFD" d="M196 336h12v3h-9v3h-3Z"/><path fill="#B7EEF2" d="M675 821h37v1h-34v2h-3Zm-363 0h37v3h-3v-2h-34Z"/><path fill="#1DC0E1" d="M931 486h1v10h2v9l-1 3h-2Z"/><path fill="#1CAEE0" d="M928 461h1v6h2v13h-2l-1-3Z"/><path fill="#92F5FC" d="M73 686h1v16h-3v10h-1v-13l1-3h2Z"/><path fill="#99E0FA" d="M315 682h4l-1 4h-2v4l-7 1v-2h3v-4h3Z"/><path fill="#D9F9FD" d="M322 575h2v2h-2v4h-3v3h-4v-3h3v-4h-5v-1Z"/><path fill="#18A5EE" d="M146 358h6v3l-6 3h-6v-3h6Z"/><path fill="#87EDFA" d="M65 771h2v6h-2v25h-1v-28Z"/><path fill="#70DDF5" d="M953 730h1l1 13h1v9l-2 3-1-3Z"/><path fill="#1FC1DE" d="M939 565h1l1 9v12h-1v-6h-2v-13Z"/><path fill="#52C8F2" d="M575 527h3v22h-1l-1-17-4 1v-3h3Z"/><path fill="#159DDB" d="M99 402h3v9h-2v13h-1Z"/><path fill="#96F5F9" d="M819 336h9v6h-3v-3h-7l-2-2Z"/><path fill="#1FC6DC" d="M944 633h3v13h-3Z"/><path fill="#25EAF7" d="M926 417h3v25h-1v-18h-2Z"/><path fill="#1AAEEF" d="M130 364h6v4h-12v2h-3v-3h9Z"/><path fill="#D4FFFE" d="M68 828h6l-3 4h-2l-1 3-6 1v-2h3v-3h3Z"/><path fill="#6FDCF5" d="M70 730h1v26l-1 2h-2v-6h2Z"/><path fill="#60D1F2" d="M956 777h1v10h2v9h-3Z"/><path fill="#1CB9D6" d="M81 602h2v12h-2l-1 4v-13Z"/><path fill="#26EBF5" d="M89 486h3v9h-1l-1 13h-1Z"/><path fill="#8EF2FB" d="M954 733h3v13h-3Z"/><path fill="#55CAF0" d="M71 715h3v12h-3Z"/><path fill="#71DCF4" d="M947 665h1v9h2v12h-2l-1-9Z"/><path fill="#20C0E8" d="M95 455h1v16l-1 3h-2v-10h2Z"/><path fill="#24DEF4" d="m922 377 1 3h2v12h-2l-1-3Z"/><path fill="#7AE4F7" d="M958 777h1l1 7v18h-1v-15h-2v-7Z"/><path fill="#B8EEF2" d="M922 821h28v3h-3v-2h-25Zm-848 0h28v1H77v2h-3Z"/><path fill="#D3F9FB" d="M575 676h26v1h-22v2h-4Z"/><path fill="#29E3F4" d="M93 455h2v9h-2v10h-1v-16Z"/><path fill="#22D1F5" d="M115 370h6l-4 1v2l-2 1h-7v3h-6l3-1v-3h9Z"/><path fill="#66D5F3" d="m950 708 1 3h2v10h-3Z"/><path fill="#18A0CC" d="M937 565h1v15h2v6h-3Z"/><path fill="#1AB0D7" d="M89 533h1v13h-3v-10h2Z"/><path fill="#82E2F8" d="M447 527h2v3h3v3h3v3l3 1-6-1-1-3-4-1Z"/><path fill="#A7E7FB" d="M668 827h4v4h-3l-1 3-5 2v-3h3v-2h2Zm-316 0h4v4h2v2h3v3l-5-2-1-3h-3Z"/><path fill="#22DBEC" d="M938 558h3v16h-1l-1-7h-1Z"/><path fill="#2DFFFF" d="M78 483h11v3H78Z"/><path fill="#8EF0FA" d="M628 315h1v22h-3v-3l-3-1h4Z"/><path fill="#94F6FC" d="M958 765h2v19h-1l-1-10h-1Z"/><path fill="#20C5DE" d="M941 602h2l1 3v13h-1v-7h-2Z"/><path fill="#28EEFA" d="M862 354h10v3l3 1h-9v-3Z"/><path fill="#26DDEC" d="M941 593h3v12l-1-3h-2Z"/><path fill="#29E8F2" d="M80 593h3v9h-2l-1 3Z"/><path fill="#27EFF7" d="M86 521h3v9h-2l-1 3Z"/><path fill="#1FCBEB" d="M98 424h1v12h-3v-9h2Z"/><path fill="#CAFAFB" d="M680 676h22v3h-3v-2h-19Z"/><path fill="#CAF9FA" d="M322 676h22v1h-19v2h-3Z"/><path fill="#2EF7FD" d="M143 358h3v3h-6v3h-4v-4h7Z"/><path fill="#7FD7F6" d="M70 824h4v3l-6 1v3h-3v3l-3-1h2v-3h3v-3h3Z"/><path fill="#92F5FC" d="M67 733h3v7h-2v6h-1Z"/><path fill="#CCF5FD" d="M569 682h3v4h-2v3h-4v-4h3Zm-117 0h3v3h3v4h-4v-3h-2Z"/><path fill="#18A2C3" d="M944 646h3v9h-3Z"/><path fill="#22DBEC" d="M83 561h3v7h-2v6h-1Z"/><path fill="#1AAEEF" d="M888 364h6v3l3 1h-9Z"/><path fill="#22D1F3" d="M180 345h3v4h-9v2h-3v-3h9Z"/><path fill="#B6EDFD" d="M705 682h4v4h2v3h-3v-3h-3Z"/><path fill="#7CD5F6" d="M950 824h4v3h3v3h3l-1 3v-2h-3v-3l-6-1Z"/><path fill="#5CD1F5" d="M62 824h3l-1 9h-2Z"/><path fill="#81E9F9" d="M950 702h3v9h-2Z"/><path fill="#1597BC" d="M77 649h3v9h-2Z"/><path fill="#24E1F0" d="M936 524h2v12l-3-3Z"/><path fill="#1AB1D9" d="M92 496h1v12l-1 3h-2v-6h2Z"/><path fill="#1BB8EC" d="M837 345h7v4h-6Z"/><path fill="#59CCF1" d="M67 787h1v10l-2 2-1-9Z"/><path fill="#5DCFF2" d="M953 752h3v9h-2l-1-2Z"/><path fill="#159DDB" d="M922 408h3v16h-1v-13h-2Z"/><path fill="#18A5EE" d="M875 361h9v3l-6 1v-3Z"/><path fill="#2BF8FC" d="M724 245h3v3h-2v13h-1Z"/><path fill="#5CCDED" d="M947 677h1v9h2v4h-3Zm-871 0h1v13h-3v-4h2Z"/><path fill="#18A7D4" d="M933 505h1v9h-3v-6h2Z"/><path fill="#1CACE0" d="M95 471h1v9h-3v-6h2Z"/><path fill="#2DF3FA" d="M930 449h2v9h-3Z"/><path fill="#1CBDE5" d="m925 430 1 3h2v6h-3Z"/><path fill="#24E0F5" d="M101 383h1v9h-3v-6h2Z"/><path fill="#24D7F6" d="m913 373 9 1v3l-6-1v-2Z"/><path fill="#B5EBF9" d="M313 686h3v4l-7 1v-2h4Z"/><path fill="#BEF1FD" d="m700 575 5 1v5h-3v-4h-2Z"/><path fill="#1FC6DD" d="M426 505h3v3h-2l1 10h-2Z"/><path fill="#1CBAED" d="M190 343h3v3l-7 1-3 1v-3h7Z"/><path fill="#22D4F3" d="M165 351h6l-4 1v2l-2 1h-7v-1h6Z"/><path fill="#BEF4FC" d="M65 831h3v4l-6 1v-2h3Z"/><path fill="#55CAF0" d="M950 721h3v6h-3Z"/><path fill="#63D3F3" d="M71 715h3v6h-3Z"/><path fill="#82EBF9" d="M71 702h3v6h-3Z"/><path fill="#22D1E3" d="M944 633h3v6h-3Zm-867 0h3v6h-3Z"/><path fill="#24E4EF" d="M77 627h3v6h-3Zm867 0h3v6h-3Z"/><path fill="#23CCE2" d="M81 602h2v6h-2l-1 3Z"/><path fill="#25F0F7" d="M83 555h3v6h-3Z"/><path fill="#1FBDE6" d="M928 461h1v6h2v4h-3Z"/><path fill="#18AADD" d="M96 436h3v6h-3Z"/><path fill="#1AACE3" d="M99 402h3v6h-3Z"/><path fill="#20CCEF" d="m922 389 1 3h2v6h-2Z"/><path fill="#27EEF9" d="m922 377 1 3h2v6h-2Zm-821 0h1l-1 9h-2v-6h2Z"/><path fill="#1AB6EB" d="M146 358h6v3h-6Z"/><path fill="#28EFFB" d="M152 355h6v3h-6Z"/><path fill="#86E7F1" d="M196 336h12v3h-3v-2h-9Z"/><path fill="#B4EDFC" d="M956 831h3l3 3v2l-6-1Z"/><path fill="#61D2F2" d="M68 752h3l-1 6h-2Z"/><path fill="#22CFE3" d="M385 464h3v3h-2v7h-1Z"/><path fill="#20C6F3" d="M115 370h6l-4 1v2l-6 1 3-1Z"/><path fill="#72DEF6" d="m950 708 1 3h2v4h-3Z"/><path fill="#5FCBF2" d="m575 527 2 4-2 2h-3v-3h3Z"/><path fill="#20CCEF" d="M99 392h3l-1 6h-2Z"/><path fill="#148CB1" d="m276 543 1 3 3 1-3 3h-1Z"/><path fill="#18A8DC" d="M925 439h3l-1 6-2-2Z"/><path fill="#1AADE3" d="m922 402 3 3v3h-3Z"/><path fill="#17A8E8" d="M829 343h2v2h6v1l-7 1Z"/><path d="M967 307h13v1h-13Zm-923 0h13v1H44Z"/><path fill="#96F8FD" d="M64 768h3v3h-2l-1 3Z"/><path fill="#9DE1FB" d="M705 682h4v3h-4Z"/><path fill="#B7EAFC" d="M445 676h4v3h-4Z"/><path fill="#1BA7C6" d="M77 649h3v3h-2l-1 3Z"/><path fill="#1DB0CD" d="M944 646h3v6l-1-3h-2Z"/><path fill="#1FC6DC" d="M77 639h3v4h-3Z"/><path fill="#26DBEB" d="M80 599h3v3h-2l-1 3Z"/><path fill="#29ECF4" d="M941 593h3v6l-1-3h-2Z"/><path fill="#2CF7FA" d="M941 589h3v4h-3Zm-861 0h3v4h-3Z"/><path fill="#BFEDFD" d="M315 581h4v3h-4Z"/><path fill="#24EBF4" d="M938 558h3v6l-1-3h-2Z"/><path fill="#24E1F0" d="M86 527h3v3h-2l-1 3Z"/><path fill="#27F1F8" d="M935 521h3v3h-2l-1 3Z"/><path fill="#17A2D1" d="M92 508h1v6h-3v-3h2Z"/><path fill="#2DF3FA" d="M92 452h3v3h-2l-1 3Z"/><path fill="#1CBDE5" d="M98 430h1v6h-3v-3h2Z"/><path fill="#1AAFEF" d="M124 368h3v3h-6l3-1Z"/><path fill="#23D6F7" d="M897 367h6v3h-3v-2Zm-776 0h6l-3 1v2h-3Z"/><path fill="#27E2F9" d="M136 361h4v3h-4Z"/><path fill="#17A9E7" d="M158 355h4v3h-4Zm704 0h4v3h-4Z"/><path fill="#1BB9EC" d="M174 349h3v3h-6l3-1Z"/><path fill="#25E2F7" d="M171 348h6l-3 1v2h-3Z"/><path fill="#1FC4F0" d="M828 342h6v3h-3v-2Z"/><path fill="#25E2F8" d="M187 342h6l-3 1v2h-3Z"/><path d="M980 308h11v1h-11Zm-947 0h11v1H33Zm922-2h11v1h-11Zm-897 0h11v1H58Zm575 547 2 4v5l-2-4Zm-243 0h1l-1 9h-1Z"/><path fill="#6DDBF4" d="m271 536 3 1v3h-3Z"/><path fill="#1599CC" d="M90 514h3l-1 4-2-1Z"/><path fill="#16A1D9" d="M96 442h3v3l-3 1Z"/><path fill="#28E8FA" d="M909 370h4v3h-3Zm-798 0 4 1-1 2h-3Z"/><path fill="#B5ECFD" d="M65 831h3v3h-3Zm888-3h3v3h-3Zm-885 0h3v3h-3Z"/><path fill="#A6E4FC" d="M950 824h3v3h-3Z"/><path fill="#A7E4FC" d="M672 824h3v3h-3Z"/><path fill="#A6E4FC" d="M71 824h3v3h-3Z"/><path fill="#A7E4FC" d="M349 824h3v3h-3Z"/><path fill="#A6E3FC" d="M675 821h3v3h-3Zm-329 0h3v3h-3Zm601 0h3v3h-3Zm-873 0h3v3h-3Z"/><path fill="#5CCFF2" d="M950 721h3v3h-3Zm-879 0h3v3h-3Z"/><path fill="#6AD7F4" d="M71 715h3v3h-3Z"/><path fill="#ADE6FB" d="M566 685h3v3h-3Zm-111 0h3v3h-3Z"/><path fill="#B2E7FC" d="M452 682h3v3h-3Zm117 0h3v3h-3Z"/><path fill="#A7E4FC" d="M702 679h3v3h-3Zm-383 0h3v3h-3Z"/><path fill="#AEE6FB" d="M572 679h3v3h-3Zm-123 0h3v3h-3Z"/><path fill="#A9E4FC" d="M322 676h3v3h-3Zm377 0h3v3h-3Z"/><path fill="#B1E7FC" d="M575 676h3v3h-3Z"/><path fill="#1DBCD5" d="M944 643h3v3h-3Z"/><path fill="#22DBE9" d="M944 633h3v3h-3Zm-867 0h3v3h-3Z"/><path fill="#26EDF4" d="M944 627h3v3h-3Zm-867 0h3v3h-3Z"/><path fill="#28F7FA" d="M944 624h3v3h-3Zm-867 0h3v3h-3Z"/><path fill="#A9E9FC" d="M762 587h3v3h-3Zm-503 0h3v3h-3Z"/><path fill="#AEE7FD" d="M712 587h3v3h-3Zm-403 0h3v3h-3Z"/><path fill="#AAE6FC" d="M759 584h3v3h-3Zm-497 0h3v3h-3Z"/><path fill="#AEE7FD" d="M709 584h3v3h-3Zm-397 0h3v3h-3Z"/><path fill="#A9E5FD" d="M756 581h3v3h-3Zm-491 0h3v3h-3Z"/><path fill="#9DE0FB" d="M705 581h3v3h-3Z"/><path fill="#AAE5FC" d="M753 578h3v3h-3Z"/><path fill="#9CDFFB" d="M702 578h3v3h-3Z"/><path fill="#BCEBFC" d="M319 578h3v3h-3Z"/><path fill="#AAE5FC" d="M268 578h3v3h-3Z"/><path fill="#ABE5FD" d="M750 575h3v3h-3Zm-479 0h3v3h-3Z"/><path fill="#26F5F9" d="M938 555h3v3h-3Z"/><path fill="#169ECD" d="M87 546h3v3h-3Z"/><path fill="#C0EDFC" d="M458 537h3v3h-3Z"/><path fill="#9ADFFB" d="M563 537h3v3h-3Z"/><path fill="#ACE6FD" d="M566 533h3v3h-3Z"/><path fill="#CEF1FE" d="M455 533h3v3h-3Z"/><path fill="#ADE7FD" d="M569 530h3v3h-3Z"/><path fill="#D0F1FE" d="M452 530h3v3h-3Z"/><path fill="#ADE7FD" d="M572 527h3v3h-3Z"/><path fill="#D0F2FE" d="M449 527h3v3h-3Z"/><path fill="#ADE7FD" d="M575 524h3v3h-3Z"/><path fill="#D1F2FE" d="M446 524h3v3h-3Z"/><path fill="#1AA5DD" d="M93 477h3v3h-3Z"/><path fill="#1AB3E1" d="M925 436h3v3h-3Zm-829 0h3v3h-3Z"/><path fill="#17A3DF" d="M922 408h3v3h-3Z"/><path fill="#18A3DF" d="M99 408h3v3h-3Z"/><path fill="#1BB3E5" d="M99 402h3v3h-3Z"/><path fill="#22D6F3" d="M99 389h3v3h-3Z"/><path fill="#27E5F9" d="M919 374h3v3h-3Z"/><path fill="#23D1F6" d="M891 364h3v3h-3Z"/><path fill="#2AF1FC" d="M894 364h3v3h-3Z"/><path fill="#23D1F6" d="M130 364h3v3h-3Z"/><path fill="#2AF1FC" d="M127 364h3v3h-3Z"/><path fill="#1DBEF3" d="M881 361h3v3h-3Zm-741 0h3v3h-3Z"/><path fill="#26DFF8" d="M884 361h3v3h-3Z"/><path fill="#22D7F4" d="M146 358h3v3h-3Zm729 0h3v3h-3Z"/><path fill="#1AB5EB" d="M872 358h3v3h-3Z"/><path fill="#20CEF1" d="M866 355h3v3h-3Zm-711 0h3v3h-3Z"/><path fill="#2AF6FC" d="M177 345h3v3h-3Z"/><path fill="#23D8F4" d="M841 345h3v3h-3Z"/><path fill="#26E7F9" d="M834 342h3v3h-3Z"/><path fill="#69D8F4" d="M822 339h3v3h-3Zm-623 0h3v3h-3Z"/><path fill="#83ECF9" d="M196 339h3v3h-3Zm629 0h3v3h-3Z"/><path d="M535 713h1v7h-1Zm-47 1h1v6h-1Zm144 134h1v5h-1Zm-241 0h1v5h-1Zm240-5h1v5h-1Zm-239 0h1v5h-1Zm238-5h1v5h-1Zm-237 0h1v5h-1Zm2-9h1v5h-1Zm-1 5 1 4Zm234-5 1 4Zm-2-9 1 4Zm-229 0 1 4Zm39-663"/></svg>